HIERARCHY
ROOT Hips
{
	OFFSET 0.000000 0.000000 0.000000
	CHANNELS 6 Xposition Yposition Zposition Xrotation Yrotation Zrotation
	JOINT LeftUpLeg_virtual
	{
		OFFSET 0.000000 0.000000 0.000000
		CHANNELS 3 Xrotation Yrotation Zrotation
		JOINT LeftUpLeg
		{
			OFFSET 11.394100 -6.187798 -0.413800
			CHANNELS 3 Xrotation Yrotation Zrotation
			JOINT LeftLeg
			{
				OFFSET 0.430247 -32.302673 3.732800
				CHANNELS 3 Xrotation Yrotation Zrotation
				JOINT LeftFoot
				{
					OFFSET -0.430247 -48.264931 -6.423300
					CHANNELS 3 Xrotation Yrotation Zrotation
					JOINT LeftToeBase
					{
						OFFSET 4.230900 -16.068199 23.438400
						CHANNELS 3 Xrotation Yrotation Zrotation
						JOINT LeftToe_End
						{
							OFFSET 4.510700 0.695400 19.974600
							CHANNELS 3 Xrotation Yrotation Zrotation
							End Site
							{
								OFFSET 0 0 0
							}
						}
					}
				}
			}
		}
	}
	JOINT RightUpLeg_virtual
	{
		OFFSET 0.000000 0.000000 0.000000
		CHANNELS 3 Xrotation Yrotation Zrotation
		JOINT RightUpLeg
		{
			OFFSET -11.333700 -6.187798 -0.413800
			CHANNELS 3 Xrotation Yrotation Zrotation
			JOINT RightLeg
			{
				OFFSET -0.430392 -32.302628 3.733000
				CHANNELS 3 Xrotation Yrotation Zrotation
				JOINT RightFoot
				{
					OFFSET 0.430392 -48.264973 -6.423500
					CHANNELS 3 Xrotation Yrotation Zrotation
					JOINT RightToeBase
					{
						OFFSET -4.230900 -16.068199 23.438400
						CHANNELS 3 Xrotation Yrotation Zrotation
						JOINT RightToe_End
						{
							OFFSET -4.510700 0.695400 19.974600
							CHANNELS 3 Xrotation Yrotation Zrotation
							End Site
							{
								OFFSET 0 0 0
							}
						}
					}
				}
			}
		}
	}
	JOINT Spine_virtual
	{
		OFFSET 0.000000 0.000000 0.000000
		CHANNELS 3 Xrotation Yrotation Zrotation
		JOINT Spine
		{
			OFFSET -0.002400 12.777504 0.315300
			CHANNELS 3 Xrotation Yrotation Zrotation
			JOINT Spine1
			{
				OFFSET -0.002067 5.816869 0.032633
				CHANNELS 3 Xrotation Yrotation Zrotation
				JOINT Spine1_split
				{
					OFFSET -0.002067 5.816869 0.032633
					CHANNELS 3 Xrotation Yrotation Zrotation
					JOINT Spine2
					{
						OFFSET -0.002067 5.816869 0.032633
						CHANNELS 3 Xrotation Yrotation Zrotation
						JOINT Neck_virtual
						{
							OFFSET 0.000000 0.000000 0.000000
							CHANNELS 3 Xrotation Yrotation Zrotation
							JOINT Neck
							{
								OFFSET -0.003700 21.199493 -0.826900
								CHANNELS 3 Xrotation Yrotation Zrotation
								JOINT Head
								{
									OFFSET 0.000000 20.442200 4.834800
									CHANNELS 3 Xrotation Yrotation Zrotation
									JOINT HeadTop_End
									{
										OFFSET 0.000000 34.668396 4.968400
										CHANNELS 3 Xrotation Yrotation Zrotation
										End Site
										{
											OFFSET 0 0 0
										}
									}
								}
							}
						}
						JOINT LeftShoulder_virtual
						{
							OFFSET 0.000000 0.000000 0.000000
							CHANNELS 3 Xrotation Yrotation Zrotation
							JOINT LeftShoulder
							{
								OFFSET 3.288150 8.794197 -1.372250
								CHANNELS 3 Xrotation Yrotation Zrotation
								JOINT LeftShoulder_split
								{
									OFFSET 3.288150 8.794197 -1.372250
									CHANNELS 3 Xrotation Yrotation Zrotation
									JOINT LeftArm
									{
										OFFSET 11.953299 -2.279007 -0.146200
										CHANNELS 3 Xrotation Yrotation Zrotation
										JOINT LeftForeArm
										{
											OFFSET 18.448900 0.000000 0.000000
											CHANNELS 3 Xrotation Yrotation Zrotation
											JOINT LeftHand
											{
												OFFSET 29.527798 0.000000 0.000000
												CHANNELS 3 Xrotation Yrotation Zrotation
												End Site
												{
													OFFSET 0 0 0
												}
											}
										}
									}
								}
							}
						}
						JOINT RightShoulder_virtual
						{
							OFFSET 0.000000 0.000000 0.000000
							CHANNELS 3 Xrotation Yrotation Zrotation
							JOINT RightShoulder
							{
								OFFSET -3.249400 8.794197 -1.372250
								CHANNELS 3 Xrotation Yrotation Zrotation
								JOINT RightShoulder_split
								{
									OFFSET -3.249400 8.794197 -1.372250
									CHANNELS 3 Xrotation Yrotation Zrotation
									JOINT RightArm
									{
										OFFSET -11.953299 -2.279007 -0.146200
										CHANNELS 3 Xrotation Yrotation Zrotation
										JOINT RightForeArm
										{
											OFFSET -18.448900 0.000000 0.000000
											CHANNELS 3 Xrotation Yrotation Zrotation
											JOINT RightHand
											{
												OFFSET -29.527802 0.000000 0.000000
												CHANNELS 3 Xrotation Yrotation Zrotation
												End Site
												{
													OFFSET 0 0 0
												}
											}
										}
									}
								}
							}
						}
					}
				}
			}
		}
	}
}
MOTION
Frames: 12
Frame Time: 0.03333333
-0.002553 100.547356 0.672913 0.000000 0.000000 0.000000 -1.864174 6.732158 -2.645781 -5.651713 8.862586 12.034720 12.763306 -4.372288 0.861334 -5.946547 1.815869 -8.179297 2.632237 0.321905 -3.688904 0.000000 0.000000 0.000000 -1.306194 6.435703 -3.079001 -5.647893 -2.819176 -1.269804 9.494304 4.457440 0.674915 -1.974622 0.521664 -3.440377 0.278141 -0.977511 -0.520553 0.000000 0.000000 0.000000 -1.406161 10.041143 -3.221537 7.920719 -0.832864 1.666071 2.452051 0.240474 -0.330976 0.152850 -1.745290 1.014794 0.000000 0.000000 0.000000 -3.887069 0.004618 0.273158 0.147103 0.801993 0.084688 4.247144 -2.151815 -1.054987 0.000000 0.000000 0.000000 -3.998367 -0.302661 0.355714 0.448031 -2.456968 -7.105211 -2.107998 -2.002627 0.409542 4.586771 -3.583754 -73.224600 5.143999 -11.976908 1.466978 0.000000 0.000000 0.000000 -4.591941 -0.628773 0.300427 0.531538 7.883148 6.217569 -3.931978 -1.605963 -0.572382 4.780579 13.617912 74.587804 17.885533 18.672554 -3.671858 0.000000 0.000000 0.000000 
-0.026825 100.658142 0.789043 0.000000 0.000000 0.000000 -1.681817 6.684880 -2.667404 -5.630946 8.952817 12.207699 12.442446 -4.243553 0.733918 -6.197795 1.606693 -7.984893 2.719476 0.312372 -3.573961 0.000000 0.000000 0.000000 -1.212849 6.185051 -3.065386 -5.665319 -2.660031 -1.221364 9.662271 4.534648 0.675158 -2.011076 0.702259 -3.756220 0.678388 -1.043505 -0.371959 0.000000 0.000000 0.000000 -1.025756 9.949502 -3.181382 8.043188 -0.795995 1.682656 2.460929 0.181036 -0.362804 0.425438 -2.142400 0.993016 0.000000 0.000000 0.000000 -3.862984 -0.008066 0.253942 0.208690 0.940171 0.000605 4.349077 -2.354308 -0.923712 0.000000 0.000000 0.000000 -3.986968 -0.348672 0.325033 0.487636 -2.663383 -7.236042 -1.999359 -1.988234 0.617954 4.443140 -3.511762 -73.333310 5.118709 -12.092391 1.406241 0.000000 0.000000 0.000000 -4.596033 -0.644467 0.328103 0.571373 7.863561 6.323923 -3.878746 -1.666968 -0.689345 4.926243 13.471256 74.530170 17.869192 18.869922 -3.694170 0.000000 0.000000 0.000000 
-0.083776 100.717743 0.920273 0.000000 0.000000 0.000000 -1.512060 6.500692 -2.690336 -5.722013 9.057424 12.486430 12.124959 -4.085807 0.656921 -6.354954 1.241629 -8.078608 2.791376 0.277351 -3.337489 0.000000 0.000000 0.000000 -1.084363 5.923217 -3.073459 -5.937641 -2.527038 -1.151352 10.008941 4.787391 0.712652 -1.937447 0.959060 -3.947951 0.737865 -1.078191 -0.454869 0.000000 0.000000 0.000000 -0.669052 9.675252 -3.157502 8.361672 -0.751454 1.762871 2.396765 0.122285 -0.390213 0.553621 -2.360427 0.882531 0.000000 0.000000 0.000000 -3.855629 -0.037384 0.242107 0.256325 1.131411 -0.061078 4.306144 -2.552573 -0.879183 0.000000 0.000000 0.000000 -4.008338 -0.404407 0.307257 0.525507 -2.967527 -7.381911 -1.871076 -1.931184 0.882138 4.267582 -3.356505 -73.372481 5.189781 -12.145846 1.288060 0.000000 0.000000 0.000000 -4.636525 -0.683476 0.352804 0.594048 7.731038 6.570908 -3.864711 -1.623700 -0.843526 5.248026 13.669950 74.129061 17.774589 19.132502 -3.684298 0.000000 0.000000 0.000000 
-0.175897 100.692200 1.089733 0.000000 0.000000 0.000000 -1.382185 6.266799 -2.710635 -5.777605 9.110147 12.788365 11.871442 -3.898200 0.631408 -6.376364 0.828535 -8.431067 2.833333 0.228593 -3.024215 0.000000 0.000000 0.000000 -0.938976 5.661256 -3.098444 -6.408003 -2.500875 -1.087410 10.509820 5.165814 0.800246 -1.740114 1.241072 -4.006051 0.431512 -1.090124 -0.712712 0.000000 0.000000 0.000000 -0.374602 9.198191 -3.130624 8.798043 -0.705019 1.859116 2.254767 0.070873 -0.391967 0.521529 -2.361079 0.778402 0.000000 0.000000 0.000000 -3.857362 -0.075830 0.249029 0.296591 1.346903 -0.095561 4.129557 -2.741132 -0.906125 0.000000 0.000000 0.000000 -4.060038 -0.464023 0.317203 0.564600 -3.294084 -7.524543 -1.902518 -1.817646 1.033801 4.080924 -3.144980 -73.323064 5.362484 -12.091261 1.132610 0.000000 0.000000 0.000000 -4.710088 -0.737660 0.384841 0.605243 7.495382 6.917802 -3.906016 -1.515777 -1.058398 5.701634 14.181561 73.450113 17.598874 19.432506 -3.641832 0.000000 0.000000 0.000000 
-0.312659 100.611824 1.332123 0.000000 0.000000 0.000000 -1.277534 5.979511 -2.723309 -5.589172 9.051563 13.018215 11.704959 -3.589175 0.650664 -6.378809 0.529730 -8.824052 2.839707 0.192443 -2.772014 0.000000 0.000000 0.000000 -0.777306 5.349113 -3.127239 -6.952163 -2.639053 -1.069646 11.093253 5.592104 0.926404 -1.475980 1.470291 -4.028280 0.013429 -1.085726 -1.025000 0.000000 0.000000 0.000000 -0.160512 8.528167 -3.091385 9.260713 -0.669690 1.927290 2.057504 0.026345 -0.347978 0.456305 -2.193567 0.697744 0.000000 0.000000 0.000000 -3.861336 -0.123770 0.291829 0.340368 1.582442 -0.077106 3.855361 -2.902633 -0.989106 0.000000 0.000000 0.000000 -4.132011 -0.523760 0.366919 0.603550 -3.591666 -7.680047 -2.102935 -1.666148 1.029752 3.890147 -2.897486 -73.177281 5.633315 -11.900068 0.960405 0.000000 0.000000 0.000000 -4.801215 -0.800531 0.443167 0.622317 7.159339 7.300063 -3.931463 -1.412717 -1.305667 6.233303 14.946156 72.585964 17.353233 19.716005 -3.573942 0.000000 0.000000 0.000000 
-0.523701 100.507263 1.552803 0.000000 0.000000 0.000000 -1.197125 5.675645 -2.721253 -5.139210 8.861154 13.149455 11.473503 -3.086805 0.708037 -6.508777 0.440726 -9.111117 2.934448 0.174737 -2.705046 0.000000 0.000000 0.000000 -0.591763 4.976185 -3.150030 -7.502350 -2.916317 -1.098565 11.662739 6.034082 1.075260 -1.292710 1.609413 -4.122365 -0.228177 -1.062805 -1.259914 0.000000 0.000000 0.000000 0.021744 7.695120 -3.058657 9.641535 -0.645495 1.944204 1.834526 -0.022639 -0.242861 0.367891 -1.890972 0.646139 0.000000 0.000000 0.000000 -3.863143 -0.181928 0.378904 0.370662 1.838015 0.015710 3.514474 -3.026068 -1.095398 0.000000 0.000000 0.000000 -4.218132 -0.586841 0.463750 0.634835 -3.822098 -7.853709 -2.358855 -1.484307 0.906480 3.695038 -2.633298 -72.925984 5.980801 -11.547140 0.779295 0.000000 0.000000 0.000000 -4.883776 -0.865333 0.542004 0.664343 6.754895 7.655614 -3.942684 -1.350675 -1.520156 6.786646 15.860763 71.641574 17.065550 19.939940 -3.494485 0.000000 0.000000 0.000000 
-0.778688 100.377106 1.764240 0.000000 0.000000 0.000000 -1.095624 5.377902 -2.707048 -4.532603 8.614980 13.234443 10.996033 -2.343529 0.730183 -6.841574 0.540214 -9.430473 3.190789 0.145613 -2.896887 0.000000 0.000000 0.000000 -0.360325 4.518210 -3.163866 -8.031094 -3.242336 -1.138256 12.213849 6.511957 1.225128 -1.285416 1.700070 -4.387009 -0.193980 -1.003388 -1.334699 0.000000 0.000000 0.000000 0.212905 6.707733 -3.046544 9.889673 -0.639773 1.898794 1.624195 -0.086112 -0.088046 0.373431 -1.532444 0.666162 0.000000 0.000000 0.000000 -3.851255 -0.247371 0.507167 0.387180 2.121121 0.188778 3.182083 -3.091223 -1.195573 0.000000 0.000000 0.000000 -4.302168 -0.664365 0.597957 0.653363 -3.966690 -8.060094 -2.585427 -1.309136 0.739667 3.547188 -2.315543 -72.580418 6.363623 -11.073440 0.589172 0.000000 0.000000 0.000000 -4.950126 -0.934357 0.685254 0.735369 6.308120 7.971580 -3.906650 -1.331120 -1.657714 7.284784 16.845531 70.699404 16.761694 20.059142 -3.419211 0.000000 0.000000 0.000000 
-1.099352 100.261597 2.047089 0.000000 0.000000 0.000000 -0.937391 5.011740 -2.676761 -3.917635 8.296112 13.363023 10.313829 -1.460424 0.646427 -7.127671 0.685915 -10.134587 3.346796 0.103578 -3.193394 0.000000 0.000000 0.000000 -0.058250 4.058887 -3.152189 -8.506247 -3.477019 -1.106842 12.728680 7.044240 1.360100 -1.422261 1.743854 -4.770454 -0.086708 -0.907872 -1.271153 0.000000 0.000000 0.000000 0.407724 5.616068 -3.064708 9.978378 -0.652810 1.812190 1.456229 -0.177093 0.091536 0.414658 -1.253489 0.640834 0.000000 0.000000 0.000000 -3.837190 -0.324269 0.654261 0.397875 2.422740 0.450606 2.927582 -3.037874 -1.277341 0.000000 0.000000 0.000000 -4.360969 -0.758035 0.751686 0.658866 -4.010945 -8.272111 -2.721772 -1.242600 0.645539 3.457516 -1.941541 -72.173250 6.725021 -10.608042 0.376883 0.000000 0.000000 0.000000 -4.992656 -1.009590 0.858292 0.822176 5.848966 8.254873 -3.854078 -1.302184 -1.676905 7.672606 17.803335 69.829559 16.455780 20.062429 -3.355512 0.000000 0.000000 0.000000 
-1.540233 100.119186 2.442856 0.000000 0.000000 0.000000 -0.738527 4.501703 -2.621745 -3.431666 7.913459 13.611069 9.700626 -0.436201 0.467749 -7.245238 0.832343 -11.342248 3.291631 0.042541 -3.351561 0.000000 0.000000 0.000000 0.305122 3.492794 -3.117145 -8.953371 -3.528439 -0.899956 13.264804 7.650898 1.484528 -1.651694 1.743598 -5.147430 -0.193362 -0.785591 -1.147130 0.000000 0.000000 0.000000 0.583552 4.413033 -3.121321 9.939675 -0.672289 1.733858 1.334890 -0.290818 0.265335 0.455088 -1.049216 0.620853 0.000000 0.000000 0.000000 -3.834950 -0.413931 0.786191 0.410704 2.745128 0.773061 2.795622 -2.844660 -1.333998 0.000000 0.000000 0.000000 -4.380210 -0.864131 0.900705 0.652267 -3.955491 -8.456350 -2.755690 -1.303763 0.631356 3.470789 -1.578673 -71.729629 6.994588 -10.260476 0.137696 0.000000 0.000000 0.000000 -5.005602 -1.092663 1.024380 0.910397 5.404076 8.545348 -3.836100 -1.207493 -1.612668 7.925968 18.629230 69.068328 16.147081 19.967828 -3.296218 0.000000 0.000000 0.000000 
-2.069777 99.933121 2.976154 0.000000 0.000000 0.000000 -0.517602 3.688002 -2.535277 -2.928074 7.520424 13.887138 9.448607 0.885004 0.262653 -7.414975 1.090157 -12.882851 3.131950 -0.028469 -3.220940 0.000000 0.000000 0.000000 0.663665 2.664522 -3.056612 -9.378701 -3.381636 -0.472991 13.988516 8.307618 1.593372 -1.987103 1.721023 -5.504748 -0.608255 -0.651202 -1.026989 0.000000 0.000000 0.000000 0.696292 3.039308 -3.196555 9.873867 -0.699835 1.709451 1.234084 -0.421235 0.399725 0.533729 -0.897814 0.634754 0.000000 0.000000 0.000000 -3.842047 -0.514433 0.876543 0.434389 3.111361 1.117882 2.779263 -2.503259 -1.363478 0.000000 0.000000 0.000000 -4.349613 -0.978656 1.017510 0.642627 -3.811732 -8.608418 -2.691895 -1.463588 0.688609 3.585226 -1.260704 -71.302285 7.107409 -10.116839 -0.126730 0.000000 0.000000 0.000000 -4.990965 -1.187674 1.142607 0.983432 4.970383 8.883829 -3.765276 -1.038339 -1.505117 8.023550 19.269680 68.406551 15.825543 19.793565 -3.229574 0.000000 0.000000 0.000000 
-2.721070 99.699791 3.586750 0.000000 0.000000 0.000000 -0.361727 2.426488 -2.435692 -2.428929 7.156479 14.145927 9.860683 2.552346 0.173070 -7.908907 1.542065 -14.471904 2.890369 -0.093578 -2.713674 0.000000 0.000000 0.000000 0.943453 1.429877 -2.958918 -9.839479 -3.044214 0.158155 14.930758 8.950376 1.714513 -2.456211 1.647109 -5.878113 -1.159629 -0.508935 -0.963091 0.000000 0.000000 0.000000 0.729589 1.531993 -3.284611 9.869238 -0.735207 1.768962 1.128673 -0.560618 0.472797 0.592089 -0.793758 0.602589 0.000000 0.000000 0.000000 -3.853761 -0.626431 0.902139 0.466108 3.523728 1.456060 2.813130 -2.016642 -1.390282 0.000000 0.000000 0.000000 -4.281881 -1.094633 1.075232 0.632034 -3.616321 -8.712962 -2.548918 -1.642171 0.767517 3.748556 -0.986959 -70.899870 7.050000 -10.163739 -0.411807 0.000000 0.000000 0.000000 -4.950613 -1.293572 1.177090 1.026903 4.556005 9.277372 -3.614868 -0.812767 -1.405261 8.009824 19.739805 67.816661 15.496518 19.652811 -3.160475 0.000000 0.000000 0.000000 
-3.485267 99.394165 4.174606 0.000000 0.000000 0.000000 -0.299619 0.843361 -2.348878 -2.119246 6.861947 14.374729 11.170948 4.445549 0.271056 -8.776655 2.162735 -15.952574 2.422566 -0.125573 -1.842655 0.000000 0.000000 0.000000 1.051262 -0.266563 -2.852540 -10.372698 -2.568778 0.948065 15.991114 9.538860 1.884309 -3.083362 1.555022 -6.344363 -1.500967 -0.345462 -0.987045 0.000000 0.000000 0.000000 0.691639 -0.076876 -3.370498 9.991025 -0.778191 1.926003 1.000212 -0.701162 0.482845 0.590548 -0.723317 0.636012 0.000000 0.000000 0.000000 -3.865472 -0.747179 0.859876 0.514757 3.990051 1.768688 2.815653 -1.386390 -1.459126 0.000000 0.000000 0.000000 -4.192782 -1.211528 1.063883 0.619996 -3.406526 -8.765733 -2.371149 -1.711054 0.820343 3.957506 -0.703295 -70.483673 6.843889 -10.395102 -0.705240 0.000000 0.000000 0.000000 -4.896547 -1.412071 1.123506 1.040071 4.152583 9.722522 -3.397856 -0.613992 -1.374833 7.981859 20.158492 67.218979 15.167991 19.590588 -3.087443 0.000000 0.000000 0.000000 
